<mxfile host="app.diagrams.net" modified="2022-08-19T01:11:05.646Z" agent="5.0 (Windows NT 10.0; Win64; x64) AppleWebKit/537.36 (KHTML, like Gecko) Chrome/104.0.0.0 Safari/537.36" etag="15WEDoNL2VTtD2LN8-n3" version="20.2.5" type="github">
  <diagram id="TU1ApuaFsVgMvRXNgRxH" name="Page-1">
    <mxGraphModel dx="1422" dy="737" grid="1" gridSize="10" guides="1" tooltips="1" connect="1" arrows="1" fold="1" page="1" pageScale="1" pageWidth="850" pageHeight="1100" math="0" shadow="0">
      <root>
        <mxCell id="0" />
        <mxCell id="1" parent="0" />
        <mxCell id="yTKWYfV0B1E2YiGgsahl-12" value="" style="edgeStyle=entityRelationEdgeStyle;startArrow=none;endArrow=none;segment=10;curved=1;rounded=0;" edge="1" parent="1" source="yTKWYfV0B1E2YiGgsahl-16" target="yTKWYfV0B1E2YiGgsahl-17">
          <mxGeometry relative="1" as="geometry" />
        </mxCell>
        <mxCell id="yTKWYfV0B1E2YiGgsahl-13" value="" style="edgeStyle=entityRelationEdgeStyle;startArrow=none;endArrow=none;segment=10;curved=1;rounded=0;" edge="1" parent="1" source="yTKWYfV0B1E2YiGgsahl-16" target="yTKWYfV0B1E2YiGgsahl-18">
          <mxGeometry relative="1" as="geometry" />
        </mxCell>
        <mxCell id="yTKWYfV0B1E2YiGgsahl-14" value="" style="edgeStyle=entityRelationEdgeStyle;startArrow=none;endArrow=none;segment=10;curved=1;rounded=0;" edge="1" parent="1" source="yTKWYfV0B1E2YiGgsahl-16" target="yTKWYfV0B1E2YiGgsahl-19">
          <mxGeometry relative="1" as="geometry" />
        </mxCell>
        <mxCell id="yTKWYfV0B1E2YiGgsahl-15" value="" style="edgeStyle=entityRelationEdgeStyle;startArrow=none;endArrow=none;segment=10;curved=1;rounded=0;" edge="1" parent="1" source="yTKWYfV0B1E2YiGgsahl-16" target="yTKWYfV0B1E2YiGgsahl-20">
          <mxGeometry relative="1" as="geometry" />
        </mxCell>
        <mxCell id="yTKWYfV0B1E2YiGgsahl-16" value="AWS" style="ellipse;whiteSpace=wrap;html=1;align=center;treeFolding=1;treeMoving=1;newEdgeStyle={&quot;edgeStyle&quot;:&quot;entityRelationEdgeStyle&quot;,&quot;startArrow&quot;:&quot;none&quot;,&quot;endArrow&quot;:&quot;none&quot;,&quot;segment&quot;:10,&quot;curved&quot;:1};" vertex="1" parent="1">
          <mxGeometry x="310" y="156" width="100" height="40" as="geometry" />
        </mxCell>
        <mxCell id="yTKWYfV0B1E2YiGgsahl-22" value="" style="edgeStyle=orthogonalEdgeStyle;rounded=0;orthogonalLoop=1;jettySize=auto;html=1;" edge="1" parent="1" source="yTKWYfV0B1E2YiGgsahl-17" target="yTKWYfV0B1E2YiGgsahl-21">
          <mxGeometry relative="1" as="geometry">
            <Array as="points">
              <mxPoint x="630" y="140" />
            </Array>
          </mxGeometry>
        </mxCell>
        <mxCell id="yTKWYfV0B1E2YiGgsahl-24" value="" style="edgeStyle=orthogonalEdgeStyle;rounded=0;orthogonalLoop=1;jettySize=auto;html=1;" edge="1" parent="1" source="yTKWYfV0B1E2YiGgsahl-17" target="yTKWYfV0B1E2YiGgsahl-23">
          <mxGeometry relative="1" as="geometry">
            <Array as="points">
              <mxPoint x="670" y="140" />
            </Array>
          </mxGeometry>
        </mxCell>
        <mxCell id="yTKWYfV0B1E2YiGgsahl-17" value="Route 53" style="whiteSpace=wrap;html=1;rounded=1;arcSize=50;align=center;verticalAlign=middle;strokeWidth=1;autosize=1;spacing=4;treeFolding=1;treeMoving=1;newEdgeStyle={&quot;edgeStyle&quot;:&quot;entityRelationEdgeStyle&quot;,&quot;startArrow&quot;:&quot;none&quot;,&quot;endArrow&quot;:&quot;none&quot;,&quot;segment&quot;:10,&quot;curved&quot;:1};" vertex="1" parent="1">
          <mxGeometry x="455" y="125" width="90" height="30" as="geometry" />
        </mxCell>
        <mxCell id="yTKWYfV0B1E2YiGgsahl-18" value="Branch" style="whiteSpace=wrap;html=1;shape=partialRectangle;top=0;left=0;bottom=1;right=0;points=[[0,1],[1,1]];fillColor=none;align=center;verticalAlign=bottom;routingCenterY=0.5;snapToPoint=1;autosize=1;treeFolding=1;treeMoving=1;newEdgeStyle={&quot;edgeStyle&quot;:&quot;entityRelationEdgeStyle&quot;,&quot;startArrow&quot;:&quot;none&quot;,&quot;endArrow&quot;:&quot;none&quot;,&quot;segment&quot;:10,&quot;curved&quot;:1};" vertex="1" parent="1">
          <mxGeometry x="460" y="170" width="72" height="26" as="geometry" />
        </mxCell>
        <mxCell id="yTKWYfV0B1E2YiGgsahl-19" value="Topic" style="whiteSpace=wrap;html=1;rounded=1;arcSize=50;align=center;verticalAlign=middle;strokeWidth=1;autosize=1;spacing=4;treeFolding=1;treeMoving=1;newEdgeStyle={&quot;edgeStyle&quot;:&quot;entityRelationEdgeStyle&quot;,&quot;startArrow&quot;:&quot;none&quot;,&quot;endArrow&quot;:&quot;none&quot;,&quot;segment&quot;:10,&quot;curved&quot;:1};" vertex="1" parent="1">
          <mxGeometry x="160" y="130" width="80" height="20" as="geometry" />
        </mxCell>
        <mxCell id="yTKWYfV0B1E2YiGgsahl-20" value="Branch" style="whiteSpace=wrap;html=1;shape=partialRectangle;top=0;left=0;bottom=1;right=0;points=[[0,1],[1,1]];fillColor=none;align=center;verticalAlign=bottom;routingCenterY=0.5;snapToPoint=1;autosize=1;treeFolding=1;treeMoving=1;newEdgeStyle={&quot;edgeStyle&quot;:&quot;entityRelationEdgeStyle&quot;,&quot;startArrow&quot;:&quot;none&quot;,&quot;endArrow&quot;:&quot;none&quot;,&quot;segment&quot;:10,&quot;curved&quot;:1};" vertex="1" parent="1">
          <mxGeometry x="160" y="170" width="72" height="26" as="geometry" />
        </mxCell>
        <mxCell id="yTKWYfV0B1E2YiGgsahl-21" value="Failover Routing" style="whiteSpace=wrap;html=1;rounded=1;arcSize=50;align=center;verticalAlign=middle;strokeWidth=1;autosize=1;spacing=4;treeFolding=1;treeMoving=1;newEdgeStyle={&quot;edgeStyle&quot;:&quot;entityRelationEdgeStyle&quot;,&quot;startArrow&quot;:&quot;none&quot;,&quot;endArrow&quot;:&quot;none&quot;,&quot;segment&quot;:10,&quot;curved&quot;:1};" vertex="1" parent="1">
          <mxGeometry x="630" y="90" width="130" height="30" as="geometry" />
        </mxCell>
        <mxCell id="yTKWYfV0B1E2YiGgsahl-23" value="Route 53" style="whiteSpace=wrap;html=1;rounded=1;arcSize=50;align=center;verticalAlign=middle;strokeWidth=1;autosize=1;spacing=4;treeFolding=1;treeMoving=1;newEdgeStyle={&quot;edgeStyle&quot;:&quot;entityRelationEdgeStyle&quot;,&quot;startArrow&quot;:&quot;none&quot;,&quot;endArrow&quot;:&quot;none&quot;,&quot;segment&quot;:10,&quot;curved&quot;:1};" vertex="1" parent="1">
          <mxGeometry x="625" y="166" width="90" height="30" as="geometry" />
        </mxCell>
      </root>
    </mxGraphModel>
  </diagram>
</mxfile>
